<?xml version="1.0" standalone="no"?>
<svg xmlns="http://www.w3.org/2000/svg" viewBox="0 0 112.926 36" width="112.926" height="36"><g fill="#ffb400" color="#ffb400" transform="translate(0 6) scale(0.24)"><svg width="67.79" height="100.0" x="0.0" y="0.0" viewBox="0 0 67.79 100"><g><g><path d="M52.717,5.016c-10.099-0.245-21.81,2.404-31.193,7.092c0.204,0.136,0.407,0.273,0.603,0.428    c4.003,3.156,4.689,8.96,1.532,12.962c-3.157,4.003-8.96,4.689-12.962,1.532c-0.821-0.647-1.494-1.409-2.031-2.24    c-2.444,5.753-3.003,12.501-3.33,19.11C4.979,51.126,4.868,57.525,5.2,64.818c0.381,8.393,2.401,16.635,3.211,24.969    c0.062,0.639,0.194,1.271,0.229,1.912c0.033,0.607-0.169,1.209-0.111,1.797c2.094,0.436,4.502,0.289,6.651,0.432    c2.359,0.154,4.718,0.316,7.077,0.467c4.835,0.307,9.677,0.564,14.524,0.605c1.152,0.01,14.673-0.531,14.607-0.857    c-2.222-11.148-2.62-23.787-3.594-35.414c-0.55-6.557-3.557-15.316,1.262-20.35c3.325-3.473,11.676-3.203,9.718-9.889    c-6.224-0.376-12.104,2.685-18.287,1.646c1.617-2.608,5.471-5.041,8.523-6.813c4.53-2.632,12.368-4.409,13.547-9.692    C64.078,6.811,57.799,5.139,52.717,5.016z"></path><circle cx="17.95" cy="19.82" r="5.23"></circle></g></g></svg></g><path fill="#000000" fill-rule="nonzero" d="M15.84 0.41Q15.86 0.60 15.86 1.01Q15.86 1.42 15.79 1.75L15.79 1.75L14.88 1.82Q14.86 2.50 14.86 3.82L14.86 3.82Q14.86 9.70 15.38 14.33L15.38 14.33L16.27 14.40Q16.32 14.78 16.32 15.06Q16.32 15.34 16.25 15.74L16.25 15.74Q15.41 15.72 14.30 15.72Q13.20 15.72 12.38 15.74L12.38 15.74Q12.31 15.38 12.31 15.11Q12.31 14.83 12.36 14.40L12.36 14.40L13.15 14.33Q13.20 12.60 13.20 10.38Q13.20 8.16 12.98 4.20L12.98 4.20Q12.74 4.70 11.78 6.65L11.78 6.65Q9.65 10.90 8.86 12.91L8.86 12.91Q8.38 13.10 7.84 13.10Q7.30 13.10 7.10 13.08L7.10 13.08Q6.26 11.06 4.72 8.20Q3.17 5.33 2.88 4.80L2.88 4.80Q2.69 8.21 2.69 10.57Q2.69 12.94 2.74 14.33L2.74 14.33L3.62 14.40Q3.67 14.78 3.67 15.06Q3.67 15.34 3.60 15.74L3.60 15.74Q2.83 15.72 1.82 15.72Q0.82 15.72 0.07 15.74L0.07 15.74Q0 15.38 0 15.11Q0 14.83 0.05 14.40L0.05 14.40L0.89 14.33Q1.39 9.96 1.39 3.98L1.39 3.98Q1.39 2.83 1.32 1.82L1.32 1.82L0.43 1.75Q0.36 1.42 0.36 1.01Q0.36 0.60 0.38 0.41L0.38 0.41Q2.35 0.36 3.36 0.29L3.36 0.29Q3.77 2.50 8.21 10.68L8.21 10.68Q11.88 3.50 12.50 0.29L12.50 0.29Q13.39 0.36 15.84 0.41L15.84 0.41ZM24.41 1.94L24.41 1.94Q24.24 3.82 24.24 7.96Q24.24 12.10 24.43 14.33L24.43 14.33L25.82 14.47Q25.87 14.86 25.87 15.08Q25.87 15.31 25.80 15.74L25.80 15.74Q24.94 15.72 23.32 15.72Q21.70 15.72 20.95 15.74L20.95 15.74Q20.88 15.38 20.88 15.14Q20.88 14.90 20.93 14.47L20.93 14.47L22.25 14.33Q22.44 11.76 22.44 7.81Q22.44 3.86 22.22 1.94L22.22 1.94Q21.29 1.97 19.63 2.11L19.63 2.11L19.56 3.89Q19.18 3.96 18.84 3.96Q18.50 3.96 18.22 3.94L18.22 3.94Q18.14 1.97 18 0.29L18 0.29L18.12 0.17Q19.90 0.38 23.81 0.38Q27.72 0.38 28.70 0.17L28.70 0.17L28.82 0.29Q28.66 2.14 28.61 3.70L28.61 3.70Q28.32 3.72 28.00 3.72Q27.67 3.72 27.26 3.65L27.26 3.65L27.19 2.04Q26.18 1.99 24.41 1.94ZM30.77 11.02L30.77 11.02Q30.62 10.68 30.62 10.27Q30.62 9.86 30.77 9.29L30.77 9.29Q35.30 8.98 36.10 8.78L36.10 8.78Q36.24 9.12 36.24 9.53Q36.24 9.94 36.10 10.51L36.10 10.51Q31.56 10.82 30.77 11.02ZM39.31 14.33L40.27 14.26Q40.49 11.81 40.49 7.76Q40.49 3.72 40.25 1.82L40.25 1.82L39.31 1.75Q39.24 1.46 39.24 1.01Q39.24 0.55 39.26 0.41L39.26 0.41Q40.80 0.38 42 0.19Q43.20 0 44.54 0L44.54 0Q46.97 0 48.23 1.12Q49.49 2.23 49.49 4.49Q49.49 6.74 47.95 7.90L47.95 7.90Q50.52 8.93 50.52 11.57L50.52 11.57Q50.52 13.80 49.13 14.94Q47.74 16.08 45.02 16.08L45.02 16.08Q43.51 16.08 42.22 15.89L42.22 15.89Q39.94 15.72 39.26 15.67L39.26 15.67Q39.24 15.53 39.24 15.10Q39.24 14.66 39.31 14.33L39.31 14.33ZM43.68 6.79L43.68 6.79Q44.21 7.15 45.23 7.15Q46.25 7.15 46.82 6.47Q47.40 5.78 47.40 4.40Q47.40 3.02 46.63 2.20Q45.86 1.37 44.45 1.37L44.45 1.37Q43.56 1.37 42.48 1.80L42.48 1.80Q42.29 3.79 42.29 7.61Q42.29 11.42 42.48 13.87L42.48 13.87Q43.90 14.42 45.05 14.42L45.05 14.42Q48.43 14.42 48.43 11.57L48.43 11.57Q48.43 9.17 46.20 8.64L46.20 8.64Q45.48 8.76 44.80 8.76Q44.11 8.76 43.18 8.40L43.18 8.40Q43.18 7.30 43.68 6.79ZM60.26 6.89L60.34 5.98Q60.86 5.93 61.06 5.93Q61.25 5.93 61.68 6L61.68 6Q61.66 6.74 61.66 7.92Q61.66 9.10 61.68 9.46L61.68 9.46Q61.32 9.53 60.98 9.53Q60.65 9.53 60.34 9.48L60.34 9.48L60.26 8.64Q58.97 8.59 58.13 8.59Q57.29 8.59 55.99 8.64L55.99 8.64Q55.99 11.78 56.16 13.90L56.16 13.90Q57.00 13.97 58.55 13.97Q60.10 13.97 60.98 13.85L60.98 13.85L61.06 12.22Q61.46 12.14 61.81 12.14Q62.16 12.14 62.40 12.17L62.40 12.17Q62.42 14.04 62.62 15.72L62.62 15.72L62.50 15.84Q61.32 15.72 57.35 15.72Q53.38 15.72 53.16 15.74L53.16 15.74Q53.09 15.38 53.09 15.06Q53.09 14.74 53.14 14.40L53.14 14.40L53.98 14.33Q54.19 10.61 54.19 7.60Q54.19 4.58 53.90 1.78L53.90 1.78L53.09 1.70Q53.04 1.39 53.04 1.06Q53.04 0.72 53.11 0.36L53.11 0.36Q53.71 0.38 57.50 0.38Q61.30 0.38 62.38 0.17L62.38 0.17L62.50 0.29Q62.30 2.40 62.28 3.70L62.28 3.70Q62.04 3.72 61.68 3.72Q61.32 3.72 60.94 3.65L60.94 3.65L60.86 2.02Q59.64 1.94 58.32 1.94Q57.00 1.94 56.14 2.02L56.14 2.02Q55.99 3.53 55.99 6.96L55.99 6.96Q56.38 6.98 57.55 6.98Q58.73 6.98 60.26 6.89L60.26 6.89ZM69.91 7.34L69.91 7.34Q70.61 7.99 71.68 7.99Q72.74 7.99 73.43 7.09Q74.11 6.19 74.11 4.70L74.11 4.70Q74.11 1.37 70.94 1.37L70.94 1.37Q69.86 1.37 68.69 1.85L68.69 1.85Q68.52 3.94 68.52 7.78Q68.52 11.62 68.74 14.33L68.74 14.33L69.62 14.40Q69.67 14.93 69.67 15.13Q69.67 15.34 69.60 15.74L69.60 15.74Q68.90 15.72 67.56 15.72Q66.22 15.72 65.71 15.74L65.71 15.74Q65.64 15.38 65.64 15.06Q65.64 14.74 65.69 14.40L65.69 14.40L66.53 14.33Q66.72 11.69 66.72 7.70Q66.72 3.72 66.48 1.82L66.48 1.82L65.57 1.75Q65.50 1.46 65.50 1.01Q65.50 0.55 65.52 0.41L65.52 0.41Q67.13 0.36 68.35 0.18Q69.58 0 70.97 0L70.97 0Q76.20 0 76.20 4.70L76.20 4.70Q76.20 6.60 75.26 7.82Q74.33 9.05 72.65 9.36L72.65 9.36Q75.02 13.13 75.94 14.21L75.94 14.21L77.06 14.28Q77.11 14.66 77.11 14.99Q77.11 15.31 77.04 15.67L77.04 15.67Q74.86 15.74 73.99 15.79L73.99 15.79L73.90 15.53Q73.49 14.52 72.90 13.43Q72.31 12.34 70.44 9.41L70.44 9.41Q69.94 9.38 69.41 9.14L69.41 9.14Q69.41 8.66 69.56 8.10Q69.72 7.54 69.91 7.34ZM84.24 1.94L84.24 1.94Q84.07 3.82 84.07 7.96Q84.07 12.10 84.26 14.33L84.26 14.33L85.66 14.47Q85.70 14.86 85.70 15.08Q85.70 15.31 85.63 15.74L85.63 15.74Q84.77 15.72 83.15 15.72Q81.53 15.72 80.78 15.74L80.78 15.74Q80.71 15.38 80.71 15.14Q80.71 14.90 80.76 14.47L80.76 14.47L82.08 14.33Q82.27 11.76 82.27 7.81Q82.27 3.86 82.06 1.94L82.06 1.94Q81.12 1.97 79.46 2.11L79.46 2.11L79.39 3.89Q79.01 3.96 78.67 3.96Q78.34 3.96 78.05 3.94L78.05 3.94Q77.98 1.97 77.83 0.29L77.83 0.29L77.95 0.17Q79.73 0.38 83.64 0.38Q87.55 0.38 88.54 0.17L88.54 0.17L88.66 0.29Q88.49 2.14 88.44 3.70L88.44 3.70Q88.15 3.72 87.83 3.72Q87.50 3.72 87.10 3.65L87.10 3.65L87.02 2.04Q86.02 1.99 84.24 1.94Z" transform="translate(24.27, 10.14)"></path></svg>